<svg fill="none" viewBox="0 0 500 500" xmlns="http://www.w3.org/2000/svg">
	<g clip-path="url(#a)">
		<path d="M425.135 341.267V175.712l41.389-62.743s-39.462-14.445-52.777-18.455V17.03H287.844C278.521 6.58 264.944 0 249.84 0s-28.68 6.58-38.003 17.031H85.934V94.48C72.601 98.524 33 113.003 33 113.003l41.545 62.761v165.555L33.156 404.08s39.462 14.444 52.778 18.455V500h327.813v-77.448c13.298-4.028 52.934-18.524 52.934-18.524l-41.546-62.761Z" fill="#000B29"/>
		<path d="M414.11 343.941c0-3.871.018-67.691.018-67.691l-.33.139s-8.907 3.507-10.382 4.063v-32.674a397.538 397.538 0 0 0-10.382-3.924l.035.053v40.381c-27.709 9.827-54.601 16.268-80.33 20.087a77.113 77.113 0 0 1-9.098 10.504c56.303-6.962 100.625-24.913 101.094-25.087l.174 56.996s27.101 41.025 30.798 46.615a.242.242 0 0 0-.104.035c-19.566 7.812-91.857 32.656-185.677 32.656-86.111 0-144.462-17.726-185.903-32.691 4.81-7.24 30.764-46.58 30.764-46.58V289.74a446.468 446.468 0 0 0 101.059 24.948 79.061 79.061 0 0 1-9.045-10.504c-31.528-4.722-58.698-12.326-80.156-19.878v-40.382a368.952 368.952 0 0 0-10.451 3.941l.104.052v32.587c-1.702-.643-10.677-4.202-10.677-4.202v67.761c-4.063 6.111-35.66 53.941-35.66 53.941l.295.104s79.271 37.239 199.67 37.239c120.4 0 199.445-37.204 199.445-37.204l.347-.139s-29.479-44.601-35.608-53.941v-.122ZM85.62 173.021v67.761s17.188-6.598 21.025-7.952v-.052c21.649-7.621 49.115-15.295 80.99-20h.138a78.296 78.296 0 0 1 9.497-10.538h-.069c-58.889 7.274-101.91 24.93-102.396 25.121v-57.083s-24.48-37.153-30.764-46.58c16.805-6.076 76.18-27.396 154.774-31.788a51.129 51.129 0 0 1-8.785-8.646c-34.843 2.483-69.357 8.281-103.368 17.396V38.316h94.011a50.729 50.729 0 0 1 4.028-10.347H96.315v75.556c-16.007 4.618-46.337 15.555-46.337 15.555s31.667 47.952 35.66 53.941h-.017Zm350.105-49.358a90486.55 90486.55 0 0 1-30.799 46.615v.035s-.035 45.399 0 57.014c-.087-.035-45.26-18.386-102.604-25.313h-.069a78.8 78.8 0 0 1 9.566 10.538h.069c.052 0 .104 0 .156.018 55.278 7.899 101.788 28.073 101.788 28.073l.33.139s-.017-60.244-.017-67.709v-.087c4.722-7.205 35.608-53.941 35.608-53.941l-.348-.139s-25.416-9.461-45.954-15.364V27.969H295.065a50.787 50.787 0 0 1 4.028 10.347h94.01v62.396s-.069-.017-.104-.017C338.086 85.92 291.211 83.49 289.648 83.368a50.991 50.991 0 0 1-8.802 8.611c8.855.521 91.598 6.32 154.809 31.65.035 0 .07.017.105.034h-.035Zm-42.656 355.07H106.645v-50.174c-3.524-.92-6.98-1.84-10.347-2.778v63.316h307.118v-63.194l.035-.035a694.16 694.16 0 0 1-10.382 2.83v50.052-.017Z" fill="#F37327"/>
		<path d="M64.024 123.646c51.181-18.489 103.385-28.906 154.774-31.77a51.083 51.083 0 0 1-8.784-8.647l-1.754 4.81c-58.472 4.6-106.788 18.767-106.788 18.767-1.997.555-27.274 8.107-44.48 14.531l7.032 2.309Zm42.622-85.33h94.01a50.729 50.729 0 0 1 4.028-10.347l-7.761 5.174h-95.451v73.68l5.174-6.18V38.316Zm291.614-5.173h-95.469l-3.715 5.173h94.01l5.174-5.173Zm5.156 70.416v-75.59l-5.173 5.174v73.75l5.173-3.334ZM187.652 212.778h.139a78.296 78.296 0 0 1 9.497-10.538h-.07a1.016 1.016 0 0 0-.191.191l-.052-.052-13.802 6.371c-31.423 4.809-62.534 13.264-92.951 25.313l-4.583 6.753c17.673-6.719 50.503-20.382 102.013-28.003v-.035Zm221.858 21.25c-.139-.052-39.948-17.378-93.073-25.417l-4.653 3.941c29.237 4.184 65.348 13.264 102.344 28.247v-67.795l35.556-53.907c0-.017.017-.034.017-.034s-7.049 2.257-6.979 2.291c-8.229 12.535-25.017 37.761-33.229 50.296v62.395l.017-.017Zm26.215-110.365 7.014-2.309c-10.503-3.923-68.923-26.597-151.875-33.316l-10.052 3.959c8.854.52 91.597 6.32 154.809 31.649.035 0 .07.017.104.035v-.018ZM106.646 428.542l-5.174 2.726v52.621l5.174-5.173v-50.174Zm-16.442-256.91v62.396l4.584-6.684v-57.083l-4.584 1.371c-8.333-12.535-24.86-37.743-33.211-50.295.035 0-7.032-2.274-7.032-2.274l35.66 53.941 4.584-1.372ZM398.26 287.275l5.156-6.823v-32.674l-5.173 2.552v36.962c-26.702 9.739-53.959 16.892-82.743 21.25l-11.858 6.319c56.302-6.961 100.625-24.913 101.094-25.086l4.774-6.754c-.104.035-.208.087-.312.122a472.97 472.97 0 0 1-10.938 4.132Zm15.886-11.025-4.619 6.754V345.4l4.601-1.355V276.25h.018Zm-9.219 70.504 30.798 46.614s-.069.018-.104.035c0 0 6.84 2.379 6.91 2.361a43334.82 43334.82 0 0 1-33.004-50.364l-4.583 1.354h-.017Zm-154.844 83.767c-122.413 0-192.986-34.774-192.986-34.774l-.122-.035s24.879-37.76 33.212-50.295l4.584 1.371v-57.083a447.125 447.125 0 0 0 101.059 24.948c-3.75-3.646-6.494-7.031-9.046-10.503l-2.743 4.236c-32.395-4.966-64.236-13.629-93.837-25.348h-.034v62.396l-4.584-1.371-35.66 53.941.296.104s79.271 37.239 199.67 37.239c118.125 0 199.444-37.204 199.444-37.204l.348-.139-7.188-2.205s-70.017 34.739-192.43 34.739l.017-.017Zm148.177 1.649v51.719H101.472l-5.174 5.174h307.118v-63.195l-5.156 6.302ZM101.472 287.275l5.174-3.021v-40.382s-.087.034-.139.052h.086l-5.121 7.048v36.32-.017Z" fill="#ED1C24"/>
		<path d="M120.985 468.073h5.209v-33.802a285.568 285.568 0 0 1-5.209-1.146v34.948Zm27.101-6.979c-1.337-4.132-4.167-12.413-8.125-24.028a908.413 908.413 0 0 1-6.58-1.285v32.309h4.688v-22.587a305.863 305.863 0 0 0 7.777 22.605h6.858v-28.785c-1.562-.26-3.142-.521-4.705-.799 0 21.632-.017 13.091.104 22.57h-.017Zm26.545-18.525a539.4 539.4 0 0 1-14.948-2.118v27.657c15.573 0 15.07.26 16.268-.747 1.25-1.076 1.823-2.83 1.823-4.427 0-15.191.208-16.51-.625-18.576-.417-1.025-1.25-1.632-2.5-1.789h-.018Zm-2.048 20.243c-2.57-.086-5.122-.173-7.674-.26v-15.694c2.552.277 5.121.555 7.674.798V462.812Zm12.361 5.33h5.277v-23.784a555.135 555.135 0 0 1-5.277-.556v24.34Zm17.777-22.639a2161.899 2161.899 0 0 0-6.111 22.639h5.348c.364-1.389.729-2.76 1.076-4.149l7.448.104c.364 1.354.712 2.709 1.076 4.045h5.347a2567.296 2567.296 0 0 1-6.041-22.066 636.495 636.495 0 0 1-8.143-.59v.017Zm1.58 13.629c.729-2.83 1.459-5.642 2.188-8.438.173 0 .364.018.538.035.729 2.865 1.458 5.712 2.17 8.542-1.632-.052-3.264-.087-4.913-.139h.017Zm33.646 3.42c-1.337-2.847-3.732-7.066-8.229-15.503-2.222-.07-4.444-.157-6.667-.261v21.389h4.757c0-14.531 0-10.226-.017-15.538 1.944 4.167 2.812 6.493 7.899 15.538h6.927v-20.816c-1.58-.017-3.177-.052-4.757-.069 0 15.295.018 11.163.105 15.295l-.018-.035Zm16.945-15.191c-2.049 6.945-4.08 13.872-6.129 20.799h5.347c.365-1.268.73-2.535 1.077-3.802 2.482 0 4.982 0 7.465-.018.365 1.268.712 2.552 1.076 3.837h5.348a5476.922 5476.922 0 0 0-6.042-20.92c-2.726.069-5.434.104-8.16.121l.018-.017Zm1.597 12.465c.729-2.639 1.458-5.277 2.187-7.934h.539c.729 2.639 1.458 5.261 2.17 7.9-1.632 0-3.282.017-4.914.034h.018Zm18.767-12.986v21.32h5.261v-4.809c2.934-.035 5.868-.07 8.802-.122.746 0 1.354-.208 1.84-.607 1.024-.834 1.493-2.188 1.493-3.421v-9.097c0-1.319-.226-2.361-.66-3.073-.955-1.58-1.128-.85-16.771-.173l.035-.018Zm12.275 11.511c-2.344.069-4.671.121-7.014.191v-7.761c2.343-.087 4.67-.191 7.014-.312v7.882Zm27.552-14.584a503.99 503.99 0 0 1-12.5 1.25c-2.309.209-3.264 1.789-3.264 4.15 0 15.694-.174 15.764.521 17.083.347.66.815 1.129 1.406 1.441 1.18.608.729.469 12.986.451 2.569 0 3.993-2.604 3.993-5.104v-14.236c0-1.667-.208-2.969-.642-3.889-.434-.92-1.268-1.302-2.518-1.163l.018.017Zm-2.032 19.462-8.559.209v-13.837c2.848-.209 5.712-.417 8.559-.643v14.289-.018Zm17.414-21.371c-1.737.243-3.49.468-5.244.694v25.59h16.372v-5.816c-3.715.139-7.413.278-11.128.4v-20.868Zm18.003 26.25h5.243v-29.931c-1.753.313-3.49.608-5.243.92v29.028-.017Zm30.226-24.08c0-6.962.399-10.938-3.664-10.07-11.215 2.431-12.083 1.997-13.333 3.959-.59.937-.885 2.343-.885 4.218 0 6.858-.486 9.289 2.239 10.382a254.026 254.026 0 0 1 10.521 3.698v5.174l-7.604.364v-4.218l-5.139.364c0 4.809-.434 7.83 1.927 9.549 1.146.833.781.625 11.997.625 4.6 0 3.941-7.257 3.941-11.476 0-3.524-.087-5.885-2.309-6.597a233.525 233.525 0 0 0-10.434-3.281v-4.601c2.534-.399 5.069-.799 7.604-1.233v3.855c1.701-.243 3.42-.487 5.121-.747l.018.035Z" fill="#FFC226"/>
		<path d="M287.046 50.937c0 20.99-17.014 38.021-38.021 38.021s-38.021-17.014-38.021-38.02c0-21.008 17.014-38.022 38.021-38.022s38.021 17.014 38.021 38.021Z" fill="#fff"/>
		<path d="M258.695 61.788h4.01l-.208-5.781-3.802 5.781Zm15.243-.07h3.993l-.191-5.763-3.802 5.764Zm4.323 6.945h4.392c-6.371 12.066-19.045 20.278-33.628 20.278-20.99 0-38.021-17.014-38.021-38.021s17.014-38.02 38.021-38.02 38.021 17.013 38.021 38.02a37.815 37.815 0 0 1-3.403 15.746l-1.094-16.024h-9.861l-1.163 4.115h1.528l-4.862 7.726-.677-11.84h-10l-1.146 4.096h1.528l-6.528 9.931h-5.381c-.556-.017-2.744-.538-2.744-3.23 0-2.69 2.57-6.596 5.174-6.596l1.094.034c-.191.66-.573 2.049-.573 2.049h4.792l1.718-6.25h-7.378c-4.583 0-8.299 3.281-9.462 6.667l1.91-6.667h-6.563l-1.146 4.114h1.702l-1.702 6.025-4.305-10.122h-6.129l-1.145 4.115h1.684l-3.82 13.889h4.913l2.379-8.663c.694 1.666 3.576 8.663 3.576 8.663h5.469l2.5-8.82a11.718 11.718 0 0 0 0 4.045c.486 2.882 3.299 4.775 6.354 4.775h9.931l1.718-2.587h6.997l.139 2.587h6.18l1.598-2.587h7.17l.278 2.587-.035-.035ZM289.459 71.736a2.408 2.408 0 0 1-2.413 2.413 2.408 2.408 0 0 1-2.413-2.413 2.397 2.397 0 0 1 2.413-2.413 2.386 2.386 0 0 1 2.413 2.413Zm-2.413-3.056a3.06 3.06 0 0 0-3.056 3.056 3.06 3.06 0 0 0 3.056 3.055 3.06 3.06 0 0 0 3.055-3.055 3.037 3.037 0 0 0-3.055-3.056Z" fill="#00A3DE"/>
		<path d="M287.844 71.076c0 .295-.278.503-.538.503h-.799v-1.024h.799c.26 0 .538.208.538.521Zm.677 0c0-.694-.643-1.111-1.233-1.111h-1.476v3.576h.678v-1.354h.434l.885 1.354h.816l-.92-1.389c.295-.07.816-.364.816-1.076Z" fill="#00A3DE"/>
		<path d="M131.56 82.014a519.104 519.104 0 0 0-14.479 3.663V79.93c3.35-6.684 6.701-13.819 10.069-19.6v-4.618c-1.927.104-3.854.19-5.781.295v5.052c-1.441.122-2.882.243-4.306.365 0-5.434-.451-11.268 3.247-11.268 7.726 0 8.628-.243 9.722.677.556.47.938 1.163 1.146 2.136.469 2.083.364 7.118.226 8.298-.261 2.188-.99 2.657-8.612 17.188 2.917-.608 5.834-1.18 8.768-1.736v5.312-.017ZM139.841 79.531c-.521-.277-.938-.816-1.233-1.614-.608-1.615-.451-1.667-.451-22.622 0-2.448.625-5.19 3.073-5.19h9.357c2.657 0 3.091 2.933 3.091 5.59 0 16.475.538 18.767-1.65 21.145-.555.59-1.198.973-1.962 1.129-9.184 1.823-9.097 2.153-10.225 1.562Zm2.569-5.26c2.292-.382 4.601-.764 6.893-1.129V55.14l-6.893.313V74.27ZM175.032 73.646c-4.896.73-9.791 1.528-14.67 2.396v-3.958c3.403-4.844 6.806-10.26 10.208-14.497v-3.646c-1.961.07-3.906.122-5.85.191v3.941c-1.459.087-2.917.156-4.375.243v-3.073c0-2.795.521-5.156 3.298-5.156 7.813 0 8.733-.174 9.861.504 1.337.816 1.494 2.708 1.494 4.27 0 2.518.086 3.577-.521 4.549-.539.833-2.795 4.184-8.299 11.667 2.951-.4 5.92-.764 8.872-1.129v3.68l-.018.018ZM185.38 72.222c-2.622.33-3.681-1.423-3.681-4.08 0-14.149-.295-15.798.903-17.1.608-.643 1.424-.972 2.5-.972h10.573v3.472c-3.212.07-6.424.156-9.636.243v4.757l7.865-.365c2.292-.104 2.951 1.493 2.951 3.785 0 4.167.487 6.875-1.493 8.524-1.145.938-1.666.695-9.965 1.754l-.017-.018Zm7.083-4.357v-5.643c-2.135.14-4.288.278-6.424.434v5.799c2.136-.208 4.289-.417 6.424-.608v.018ZM317.288 72.413c0-9.305-.052-11.389.173-17.43.052.052.122.104.174.139-.729 3.264-1.163 6.059-3.941 16.84-1.649-.208-3.299-.4-4.948-.59-3.177-12.552-2.049-8.594-4.028-16.823a.816.816 0 0 1 .174-.087c.26 4.305.174 9.844.174 16.51-1.32-.138-2.657-.277-3.976-.399V50.07h5.833a2074.625 2074.625 0 0 1 4.236 16.197c.07 0 .139 0 .209.018a1471.867 1471.867 0 0 0 4.062-16.215h5.816v22.847c-1.319-.174-2.621-.365-3.941-.521l-.017.017ZM325.466 73.837v-23.75h12.743v4.201c-2.795-.104-5.59-.19-8.386-.277v5.833c2.032.139 4.063.26 6.077.4v5a795.864 795.864 0 0 0-6.077-.609v5.92c2.796.365 5.591.73 8.386 1.13v4.2a526.407 526.407 0 0 0-12.743-2.083v.035ZM358.104 80.174c-1.875-.417-3.75-.816-5.625-1.216-4.237-13.316-3.976-11.649-4.914-15.364-.833-3.334-1.284-6.129-1.649-7.813.087-.017.191-.052.278-.07.087 6.598.069 9.88.087 21.997l-3.802-.729V50.104h5.347c4.878 14.566 4.6 15.122 6.927 24.896-.087 0-.191.035-.278.035-.243-9.288-.191-7.57-.191-24.93h3.82v30.069ZM361.525 59.48v-9.358h3.993V55c-1.336 1.545-2.673 3.021-3.993 4.48ZM382.636 78.733c0 2.917-.625 6.701-3.437 5.955-7.987-2.083-8.021-1.754-9.115-2.934-2.205-2.344-1.667-7.136-1.667-10.886 1.407.226 2.813.434 4.219.66v5.886c1.927.382 3.854.763 5.781 1.18v-5.937a177.149 177.149 0 0 0-8.055-6.06c-1.754-1.37-1.945-3.194-1.945-5.59 0-5.746-.208-8.125.851-9.652.556-.816 1.354-1.233 2.361-1.233 8.021 0 8.733-.26 9.722.816.486.538.834 1.371 1.025 2.465.191 1.094.277 2.448.277 4.045v4.48a383.749 383.749 0 0 1-4.236-.383v-5.52c-1.927-.105-3.854-.191-5.781-.295v5.173a190.476 190.476 0 0 1 8.073 5.677c.521.452.92.938 1.198 1.459.92 1.666.729 4.635.729 10.677v.017Z" fill="#FFC226"/>
		<path d="M377.183 368.993a2.786 2.786 0 0 1-2.777 2.778 2.786 2.786 0 0 1-2.778-2.778 2.764 2.764 0 0 1 2.778-2.778 2.742 2.742 0 0 1 2.777 2.778Zm-2.76-3.507a3.509 3.509 0 0 0-3.507 3.507 3.52 3.52 0 0 0 3.507 3.507 3.52 3.52 0 0 0 3.507-3.507 3.497 3.497 0 0 0-3.507-3.507Z" fill="#C7E2F6"/>
		<path d="M375.308 368.247c0 .347-.33.573-.625.573h-.92v-1.181h.92c.295 0 .625.226.625.608Zm.799 0c0-.799-.729-1.285-1.406-1.285h-1.684v4.097h.781v-1.545h.486l1.024 1.545h.938l-1.059-1.597c.33-.087.937-.417.937-1.233l-.017.018Z" fill="#C7E2F6"/>
		<path d="M137.601 199.218a4.347 4.347 0 0 0 3.177-5.086c-1.684-8.23-3.507-17.205-5.121-25.139a495.947 495.947 0 0 1 15.659-3.577 4.385 4.385 0 0 0 3.49-4.149c.122-4.253.278-9.792.365-12.934 0 0-15.174 3.212-22.691 5.052-.052-.243-3.698-18.125-3.698-18.125a460.29 460.29 0 0 1 22.083-5.017 4.36 4.36 0 0 0 3.438-4.948c-.625-3.941-1.372-8.698-1.841-11.58a508.206 508.206 0 0 0-46.771 11.354c4.862 20.382 13.612 57.083 18.559 77.847a434.332 434.332 0 0 1 13.368-3.68l-.017-.018Zm93.906-13.854c2.379-.104 4.254-2.083 4.184-4.479-.295-11.094-1.024-39.705-1.024-39.705 2.535 5.556 11.163 24.358 18.941 41.32a4.39 4.39 0 0 0 3.906 2.552c4.41.069 8.82.208 13.229.416.99-26.319 2.066-54.201 3.056-80.538a498.36 498.36 0 0 0-19.028-.521l.347 44.757c-7.083-15.069-20.902-44.531-20.902-44.531-6.407.191-12.795.504-19.202.955 1.476 26.319 3.039 54.149 4.497 80.451 3.993-.26 7.986-.486 11.979-.642l.017-.035Zm65.643-1.701 2.413-9.913c4.74.503 9.462 1.076 14.184 1.736.087 3.316.382 14.062.382 14.062a428.973 428.973 0 0 1 18.125 2.986c-.243-9.01-1.597-58.715-2.136-78.263a4.351 4.351 0 0 0-3.697-4.202 510.935 510.935 0 0 0-29.063-3.524 269189.51 269189.51 0 0 0-19.288 79.288c4.826.295 9.635.677 14.444 1.129a4.35 4.35 0 0 0 4.636-3.316v.017Zm15.156-62.292 1.024 37.882a481.847 481.847 0 0 0-9.948-1.215l8.924-36.667Zm-137.622 4.618c1.875 15.035 4.15 33.299 6.025 48.229a400.175 400.175 0 0 0-12.084 1.98c.625 4.288 1.684 11.423 2.309 15.746a450.8 450.8 0 0 1 36.771-5c2.9-.33 4.15-1.788 3.941-4.653-.347-4.913-.816-11.597-.816-11.597-3.975.33-7.951.712-11.927 1.146 0 0-3.055-33.403-4.444-48.472 2.899-.33 5.816-.625 8.715-.903 2.361-.226 4.115-2.292 3.941-4.653-.278-3.958-.608-8.698-.816-11.597a505.404 505.404 0 0 0-47.066 6.215c.573 3.959 1.736 11.806 2.309 15.747 4.358-.799 8.75-1.511 13.125-2.188h.017Zm202.761 72.657c.903-3.785 1.944-8.091 2.656-11.059a440.666 440.666 0 0 0-20.417-5.452s8.559-42.76 12.622-63.003c0 0-13.038-3.073-19.601-4.41-4.323 25.92-8.906 53.316-13.212 79.201a437.284 437.284 0 0 1 32.535 7.9c2.379.677 4.844-.782 5.417-3.177Zm-76.302 129.826c-6.25.642-12.5 1.18-18.768 1.597.955 18.386 2.882 55.504 3.316 63.681a1.632 1.632 0 0 1-1.545 1.718c-4.462.278-8.923.504-13.403.678a1.64 1.64 0 0 1-1.701-1.598c-.208-8.264-1.18-45.26-1.649-63.611v-.139a468.66 468.66 0 0 1-19.775.261c-.208 23.663-.416 49.843-.607 73.489.052 0 11.406 8.004 11.423 8.004a536.234 536.234 0 0 0 39.132-1.962l9.775-9.01c-.4-4.671-1.268-15.035-1.667-19.775-1.389-16.389-3.142-36.927-4.531-53.316v-.017Zm-168.542-12.708c-5.486 25.781-11.423 53.593-16.91 79.34a503.59 503.59 0 0 0 16.563 4.08c2.5.573 4.983-1.042 5.434-3.542a7833.544 7833.544 0 0 0 4.045-22.674 500.726 500.726 0 0 0 16.945 3.351c2.048.365 4.079-.677 4.913-2.552l5.451-12.187a506.178 506.178 0 0 1-24.427-4.653l3.715-20.834a448.802 448.802 0 0 0 21.459 4.167c2.517.434 4.878-1.285 5.208-3.785l1.51-11.423a453.38 453.38 0 0 1-43.889-9.323l-.017.035Zm94.097 14.652a456.087 456.087 0 0 1-31.562-2.725l-10.816 6.562c-2.431 20.677-5.191 44.288-7.604 64.913l.052.052s10.295 9.48 10.33 9.514a531.752 531.752 0 0 0 36.007 3.125h.017l11.823-7.517s1.198-44.635 1.753-65.434c0 0-9.948-8.472-9.965-8.472h-.035v-.018Zm-12.586 63.507c-.122.764-.591 1.216-1.337 1.164-4.011-.313-9.948-.886-12.483-1.129a1.24 1.24 0 0 1-1.111-1.337c1.128-13.489 3.385-40.486 3.889-46.597a1.234 1.234 0 0 1 1.354-1.128c3.767.381 7.535.677 11.319.954a1.235 1.235 0 0 1 1.146 1.302c-.364 6.06-1.979 33.143-2.795 46.754l.018.017Zm167.881-2.083c-4.635-6.563-16.892-23.906-16.979-24.08 0 0 6.945-7.899 9.532-10.833C373 349.323 368 324.618 368 324.618c-.069-.052-10.329-5.764-10.329-5.782a459.947 459.947 0 0 1-46.094 8.351c2.708 26.302 5.642 54.688 8.351 80.955.138 0 8.767-1.146 16.996-2.483 2.847-.468 4.792-3.072 4.41-5.885-1.007-7.309-2.188-15.937-3.091-22.431 3.16-.538 6.945-1.25 6.997-1.25l16.649 24.896c4.983-1.059 13.143-3.021 18.229-4.271 2.205-.538 3.16-3.072 1.875-4.913v.035Zm-30.208-33.576a485.654 485.654 0 0 1-15.764 2.934l-2.899-20.955a437.298 437.298 0 0 0 15.087-2.83 1.24 1.24 0 0 1 1.475 1.007c.625 3.75 2.466 14.791 3.073 18.42a1.258 1.258 0 0 1-.972 1.424Z" fill="#fff"/>
		<path d="m176.316 182.951-5.382 8.993a450.8 450.8 0 0 1 36.771-5c2.9-.33 4.15-1.788 3.941-4.653a4127.74 4127.74 0 0 1-.816-11.597c-.972 1.563-5.521 8.49-5.521 8.49a455.815 455.815 0 0 0-28.975 3.767h-.018Zm-52.066 19.948a437.202 437.202 0 0 1 13.368-3.681 4.349 4.349 0 0 0 3.178-5.086c-1.684-8.23-3.507-17.205-5.122-25.139a495.37 495.37 0 0 1 15.66-3.577 4.385 4.385 0 0 0 3.489-4.149c.122-4.254.278-9.792.365-12.934l-5.712 9.358c-8.212 1.718-16.545 3.732-24.653 5.885l7.691-10.191c-.052-.243-3.698-18.125-3.698-18.125a460.603 460.603 0 0 1 22.084-5.017 4.36 4.36 0 0 0 3.437-4.948c-.625-3.941-1.371-8.698-1.84-11.58-.069.139-4.705 9.045-4.705 9.045a496.026 496.026 0 0 0-30.399 7.274c4.479 20.243 13.854 62.657 13.854 62.657l-6.979 10.225-.018-.017Zm107.257-17.535c2.379-.104 4.254-2.083 4.184-4.479-.26-10.278-.92-35.625-1.024-39.253v-.434s-9.496-20.296-9.583-20.296c.746 18.108 2.344 56.684 2.344 56.684l-7.882 8.421c3.993-.261 7.986-.487 11.979-.643h-.018Zm140.799-66.232h-.035c-.121.052-11.059 5.572-11.076 5.59-3.75 20.416-7.865 42.847-11.615 63.212 1.945-1.164 8.264-4.705 10.122-5.816 0 0 8.559-42.761 12.621-63.004l-.017.018Zm5.139 79.513c.903-3.784 1.944-8.09 2.656-11.059-.017 0-10 5.452-10 5.452a441.995 441.995 0 0 0-20.521-5.087c-.139.087-9.948 5.903-10.087 5.99a436.781 436.781 0 0 1 32.535 7.899c2.379.677 4.844-.781 5.417-3.177v-.018Zm-85.052-33.593-3.247 13.368c.018.034-11.076 7.396-11.076 7.43 4.826.295 9.635.677 14.444 1.129a4.35 4.35 0 0 0 4.636-3.316l2.413-9.913v-.035l.052.052c4.184.451 8.351.955 12.517 1.51.539.07 1.077.139 1.598.209l8.854-6.667-30.191-3.75v-.017Zm-93.49 6.805c0-.104-3.073-33.42-4.444-48.472 2.899-.33 5.816-.625 8.715-.903a4.36 4.36 0 0 0 3.941-4.653c-.278-3.958-.608-8.697-.816-11.597l-5.746 8.455s-11.181 1.233-16.771 1.979c0 0 4.67 43.525 6.892 64.184 0 0 6.823-7.448 8.212-8.993h.017Zm56.007 12.275a4.438 4.438 0 0 0 2.604.92c4.41.069 8.82.208 13.229.416.99-26.319 2.066-54.201 3.056-80.538l-9.618 7.587c-.399 16.771-.833 36.597-1.233 53.316-2.552-5.434-5.173-11.007-7.83-16.684-6.336-13.472-18.055-38.455-20.468-43.594-.139-.312-.295-.607-.434-.92l-4.549 7.969c9.74 20.989 20.208 43.594 29.931 64.531 0 0-3.611 5.382-4.688 6.997Zm57.396-62.761 8.872-4.028a487.936 487.936 0 0 0-16.667-2.083c-3.785 15.521-8.351 34.323-12.118 49.792.035 0 10.781-6.893 10.989-7.014l8.924-36.667Zm-137.622 4.618 9.08-9.323c-4.982.66-11.18 1.563-16.892 2.518l-5.313 8.993c4.358-.782 8.75-1.511 13.125-2.188Zm155.434-11.719a4.362 4.362 0 0 0-1.284-2.968l-7.639 6.059s1.649 60.625 1.771 65.243c.069.069-8.837 6.944-8.837 6.944a428.973 428.973 0 0 1 18.125 2.986c-.243-9.01-1.597-58.715-2.136-78.264ZM167.671 331.736a461.552 461.552 0 0 1-27.448-5.764c-1.893 9.635-5.313 27.101-7.205 36.736l11.58-5.781 3.715-20.834a449.003 449.003 0 0 0 21.458 4.167c2.518.434 4.879-1.285 5.209-3.785l1.51-11.423c-8.872 6.597-8.819 6.666-8.819 6.666v.018Zm-51.98 63.385a547.764 547.764 0 0 0 16.563 4.08c2.5.573 4.983-1.042 5.434-3.542a7834.892 7834.892 0 0 0 4.045-22.673 503.202 503.202 0 0 0 16.945 3.35c2.048.365 4.079-.677 4.913-2.552l5.434-12.17c-1.268.712-10.729 6.58-10.799 6.424a501.143 501.143 0 0 1-25.208-5.33l-5.278 26.944-12.049 5.452v.017Zm78.282-55.555a144302.52 144302.52 0 0 1-5.677 56.875c.104-.035 7.013-1.928 11.076-3.021a1.161 1.161 0 0 1-.208-.799c1.128-13.489 3.385-40.486 3.889-46.597a1.235 1.235 0 0 1 1.354-1.129c3.767.382 7.534.678 11.319.955.087 0 .174.018.243.052h.035c.069.018.139.052.191.07.139.069.26.173.364.295l5.191-8.038c-7.152-.452-13.75-1.025-22.534-1.979-.087.034-5.209 3.246-5.278 3.281l.035.035Zm63.802-.487c.173 19.323.364 41.962.538 61.216l11.198-4.653a1.623 1.623 0 0 1-.469-1.094c-.208-8.264-1.18-45.399-1.667-63.75l-9.6 8.264v.017Zm75.347 1.164a437.298 437.298 0 0 0 15.087-2.83c.33-.07.642 0 .903.156l4.427-9.531a470.188 470.188 0 0 1-31.424 5.816c1.181 9.739 3.299 27.413 4.462 37.153 0 0 9.41-9.827 9.41-9.809l-2.9-20.955h.035Zm-111.337-1.98 4.393 4.41-2.553 56.719-5.069 4.149c-8.524-.538-25.521-2.205-25.521-2.205l-4.757-4.913-11.597 2.743.052.052 10.33 9.514a531.864 531.864 0 0 0 36.007 3.125h.017l11.823-7.517v-.035c.035-.972.052-1.962.087-2.934.243-8.785.937-35.156 1.441-53.646.017-.781.035-1.562.069-2.326v-.208c.035-1.025.052-2.032.087-3.039.035-1.128.052-2.204.087-3.229 0 0-9.948-8.472-9.965-8.472-.052 0-4.913 7.795-4.931 7.83v-.018Zm108.143 60.382s-9.966 9.514-10 9.514a445.81 445.81 0 0 0 8.107-1.111c.347-.052.712-.104 1.077-.156.972-.139 1.944-.295 2.934-.434.382-.052.746-.122 1.128-.174 1.267-.191 2.517-.399 3.767-.59 2.848-.469 4.792-3.073 4.41-5.885-1.007-7.309-2.187-15.938-3.09-22.431 3.16-.538 6.944-1.25 6.996-1.25.087-.121 6.441-9.375 6.511-9.479a494.858 494.858 0 0 1-25.156 4.375c.972 8.073 3.333 27.639 3.333 27.639l-.017-.018Zm52.065-6.805c-4.635-6.563-16.892-23.906-16.979-24.08 0 0 6.945-7.899 9.532-10.833a14.05 14.05 0 0 1-.191-.99c-1.737-8.542-6.355-31.319-6.355-31.319-.069-.052-10.329-5.764-10.329-5.782l-4.098 9.184 6.216 2.171 5.052 27.1s-6.233 7.795-6.302 7.917c0 0-3.629.781-6.771 1.406 0 0 13.576 19.34 17.257 24.566l-7.118 9.809c4.982-1.059 13.142-3.021 18.229-4.271 2.205-.538 3.16-3.073 1.875-4.913l-.018.035Zm-80.85-63.368-8.611 8.889c1.319 19.305 2.882 41.892 4.201 61.146-.087.086-4.965 4.392-5.052 4.479-9.306.729-18.594 1.163-27.934 1.389-.017 0-5.451-4.08-5.469-4.098l-11.285 4.254s11.407 8.003 11.424 8.003a535.7 535.7 0 0 0 39.132-1.961l9.792-9.028c-.4-4.67-1.268-15.035-1.667-19.775-1.389-16.388-3.142-36.927-4.531-53.316v.018Z" fill="#C7E2F6"/>
		<path d="m302.445 238.559 79.115.104a426.58 426.58 0 0 0-32.987-9.305l-44.774-.052c-10.26-19.184-30.486-32.257-53.698-32.257s-43.455 13.09-53.698 32.257l-42.986.052a430.237 430.237 0 0 0-33.507 9.305l77.865-.104c7.205 3.802 11.632 11.128 11.632 19.34 0 6.719-2.969 12.847-8.004 16.945a51.225 51.225 0 0 1-2.864-16.945c0-3.576.364-7.066 1.059-10.451a16.295 16.295 0 0 0-3.403-2.934h-5.434a60.679 60.679 0 0 0-1.476 13.368 60.35 60.35 0 0 0 3.16 19.323l-76.042-.087a428.725 428.725 0 0 0 31.823 9.306l51.702.069c10.972-5.208 16.944-13.906 18.42-23.976h9.514c1.857 8.941 8.993 15.99 17.986 17.709v29.08c-15.261-1.268-28.646-9.202-37.257-20.869-1.91 1.32-6.198 3.941-8.524 4.011 15.972 23.073 40.503 26.024 50.208 26.233 18.09.399 37.882-8.837 49.93-26.233-2.309-.052-6.614-2.708-8.524-4.011-8.611 11.667-21.996 19.601-37.257 20.869v-29.08c8.993-1.736 16.129-8.768 17.986-17.709h9.514c1.458 10 7.379 18.733 18.42 23.976l52.205-.069a435.093 435.093 0 0 0 32.292-9.306l-77.031.087a60.721 60.721 0 0 0 1.666-32.691h-5.434a15.898 15.898 0 0 0-3.403 2.934c1.806 8.767 1.389 18.246-1.805 27.378-11.892-9.687-10.382-28.854 3.628-36.267h-.017Zm-74.635 14.705h-9.514a30.804 30.804 0 0 0-12.986-20.938c8.177-14.27 22.968-24.288 40.156-25.816v29.098c-8.837 1.84-15.816 8.819-17.656 17.656Zm54.079 0h-9.513c-1.841-8.837-8.82-15.816-17.657-17.656V206.51c17.205 1.546 31.979 11.546 40.157 25.816-7.066 4.896-11.754 12.396-12.987 20.938Z" fill="#fff"/>
		<path d="M249.841 271.701c7.584 0 13.733-6.148 13.733-13.732 0-7.585-6.149-13.733-13.733-13.733-7.584 0-13.733 6.148-13.733 13.733 0 7.584 6.149 13.732 13.733 13.732Z" fill="#ED1C24"/>
		<path d="m249.84 247.795 2.31 7.118h7.5l-6.06 4.393 2.31 7.118-6.06-4.393-6.059 4.393 2.327-7.118-6.059-4.393h7.482l2.309-7.118Z" fill="#fff"/>
		<path d="M381.559 238.663a426.88 426.88 0 0 0-32.986-9.305h-9.757c4.966 2.222 10.504 5.26 15.4 9.271l27.343.034Zm-27.152 38.507c-4.827 3.993-10.313 7.049-15.261 9.289h13.368a443.13 443.13 0 0 0 32.292-9.323l-30.417.034h.018Zm-234.532-38.507 25.591-.034c4.896-4.011 10.434-7.049 15.399-9.271h-7.483a438.48 438.48 0 0 0-33.507 9.305Zm-3.541 38.473a428.57 428.57 0 0 0 31.823 9.305h12.361c-4.931-2.222-10.417-5.278-15.261-9.271l-28.941-.034h.018Z" fill="#C7E2F6"/>
	</g>
	<defs>
		<clipPath id="a">
			<path d="M33 0h433.681v500H33z" fill="#fff"/>
		</clipPath>
	</defs>
</svg>